<svg xmlns="http://www.w3.org/2000/svg" xmlns:xlink="http://www.w3.org/1999/xlink" version="1.1" width="80" height="80" viewBox="0 0 256 256" xml:space="preserve">

<defs>
</defs>
<g style="stroke: none; stroke-width: 0; stroke-dasharray: none; stroke-linecap: butt; stroke-linejoin: miter; stroke-miterlimit: 10; fill: none; fill-rule: nonzero; opacity: 1;" transform="translate(1.4065934065934016 1.4065934065934016) scale(2.81 2.81)" >
	<path d="M 76.887 60.488 H 69.73 c -0.828 0 -1.5 -0.672 -1.5 -1.5 s 0.672 -1.5 1.5 -1.5 h 7.156 C 82.463 57.488 87 52.951 87 47.375 c 0 -5.335 -4.179 -9.763 -9.514 -10.08 l -1.581 -0.094 l 0.18 -1.573 c 0.1 -0.872 0.147 -1.652 0.147 -2.385 c 0 -11.438 -9.305 -20.742 -20.742 -20.742 c -7.165 0 -13.729 3.641 -17.559 9.74 l -0.745 1.186 l -1.234 -0.662 c -2.296 -1.231 -4.89 -1.882 -7.503 -1.882 c -8.491 0 -15.457 6.65 -15.858 15.14 l -0.057 1.197 l -1.18 0.209 C 6.514 38.288 3 42.471 3 47.375 c 0 5.576 4.537 10.113 10.113 10.113 h 6.495 c 0.829 0 1.5 0.672 1.5 1.5 s -0.671 1.5 -1.5 1.5 h -6.495 C 5.883 60.488 0 54.605 0 47.375 c 0 -5.966 4.007 -11.109 9.683 -12.645 c 1.025 -9.536 9.057 -16.849 18.766 -16.849 c 2.648 0 5.282 0.563 7.693 1.637 C 40.602 13.22 47.738 9.5 55.49 9.5 c 13.092 0 23.742 10.651 23.742 23.742 c 0 0.401 -0.013 0.813 -0.037 1.239 C 85.365 35.581 90 40.974 90 47.375 C 90 54.605 84.117 60.488 76.887 60.488 z" style="stroke: none; stroke-width: 1; stroke-dasharray: none; stroke-linecap: butt; stroke-linejoin: miter; stroke-miterlimit: 10; fill: rgb(0, 153, 204); fill-rule: nonzero; opacity: 1;" transform=" matrix(1 0 0 1 0 0) " stroke-linecap="round" />
	<path d="M 57.064 54.961 v -5.597 C 57.064 42.712 51.652 37.3 45 37.3 c -6.653 0 -12.065 5.412 -12.065 12.064 v 5.597 c -1.996 0.729 -3.432 2.628 -3.432 4.873 V 79 c 0 0.828 0.671 1.5 1.5 1.5 h 27.994 c 0.828 0 1.5 -0.672 1.5 -1.5 V 59.834 C 60.497 57.59 59.06 55.69 57.064 54.961 z M 45 40.3 c 4.998 0 9.064 4.066 9.064 9.064 v 5.266 H 35.935 v -5.266 C 35.935 44.366 40.001 40.3 45 40.3 z M 57.497 77.5 H 32.503 V 59.834 c 0 -1.216 0.989 -2.204 2.204 -2.204 h 20.586 c 1.216 0 2.204 0.988 2.204 2.204 V 77.5 z" style="stroke: none; stroke-width: 1; stroke-dasharray: none; stroke-linecap: butt; stroke-linejoin: miter; stroke-miterlimit: 10; fill: rgb(0, 153, 204); fill-rule: nonzero; opacity: 1;" transform=" matrix(1 0 0 1 0 0) " stroke-linecap="round" />
	<circle cx="45.004" cy="70.554" r="2.644" style="stroke: none; stroke-width: 1; stroke-dasharray: none; stroke-linecap: butt; stroke-linejoin: miter; stroke-miterlimit: 10; fill: rgb(0, 153, 204); fill-rule: nonzero; opacity: 1;" transform="  matrix(1 0 0 1 0 0) "/>
	<path d="M 67.472 34.742 c -0.828 0 -1.5 -0.671 -1.5 -1.5 c 0 -5.78 -4.702 -10.482 -10.481 -10.482 c -0.828 0 -1.5 -0.671 -1.5 -1.5 s 0.672 -1.5 1.5 -1.5 c 7.434 0 13.481 6.048 13.481 13.482 C 68.972 34.071 68.3 34.742 67.472 34.742 z" style="stroke: none; stroke-width: 1; stroke-dasharray: none; stroke-linecap: butt; stroke-linejoin: miter; stroke-miterlimit: 10; fill: rgb(0, 153, 204); fill-rule: nonzero; opacity: 1;" transform=" matrix(1 0 0 1 0 0) " stroke-linecap="round" />
	<path d="M 21.859 37.451 c -0.024 0 -0.048 0 -0.072 -0.001 c -0.828 -0.04 -1.467 -0.742 -1.428 -1.569 c 0.205 -4.33 3.758 -7.721 8.089 -7.721 c 0.829 0 1.5 0.671 1.5 1.5 s -0.671 1.5 -1.5 1.5 c -2.727 0 -4.963 2.136 -5.092 4.862 C 23.319 36.825 22.655 37.451 21.859 37.451 z" style="stroke: none; stroke-width: 1; stroke-dasharray: none; stroke-linecap: butt; stroke-linejoin: miter; stroke-miterlimit: 10; fill: rgb(0, 153, 204); fill-rule: nonzero; opacity: 1;" transform=" matrix(1 0 0 1 0 0) " stroke-linecap="round" />
</g>
</svg>