<svg xmlns="http://www.w3.org/2000/svg" xmlns:xlink="http://www.w3.org/1999/xlink" version="1.1" width="80" height="80" viewBox="0 0 256 256" xml:space="preserve">

<defs>
</defs>
<g style="stroke: none; stroke-width: 0; stroke-dasharray: none; stroke-linecap: butt; stroke-linejoin: miter; stroke-miterlimit: 10; fill: none; fill-rule: nonzero; opacity: 1;" transform="translate(1.4065934065934016 1.4065934065934016) scale(2.81 2.81)" >
	<path d="M 77.152 54.216 H 12.848 c -1.41 0 -2.553 -1.143 -2.553 -2.553 V 12.979 c 0 -1.41 1.143 -2.553 2.553 -2.553 h 64.304 c 1.41 0 2.553 1.143 2.553 2.553 v 38.683 C 79.705 53.073 78.562 54.216 77.152 54.216 z" style="stroke: none; stroke-width: 1; stroke-dasharray: none; stroke-linecap: butt; stroke-linejoin: miter; stroke-miterlimit: 10; fill: none; fill-rule: nonzero; opacity: 1;" transform=" matrix(1 0 0 1 0 0) " stroke-linecap="round" />
	<path d="M 77.817 54.216 H 12.183 c -1.154 0 -2.207 0.66 -2.71 1.699 L 1 73.424 h 88 l -8.473 -17.51 C 80.024 54.876 78.971 54.216 77.817 54.216 z" style="stroke: none; stroke-width: 1; stroke-dasharray: none; stroke-linecap: butt; stroke-linejoin: miter; stroke-miterlimit: 10; fill: none; fill-rule: nonzero; opacity: 1;" transform=" matrix(1 0 0 1 0 0) " stroke-linecap="round" />
	<path d="M 73.023 59.406 H 16.977 c -1.073 0 -2.051 0.613 -2.518 1.579 l -1.78 3.678 c -0.337 0.697 0.17 1.507 0.945 1.507 h 62.752 c 0.774 0 1.282 -0.81 0.945 -1.507 l -1.78 -3.678 C 75.074 60.019 74.096 59.406 73.023 59.406 z" style="stroke: none; stroke-width: 1; stroke-dasharray: none; stroke-linecap: butt; stroke-linejoin: miter; stroke-miterlimit: 10; fill: none; fill-rule: nonzero; opacity: 1;" transform=" matrix(1 0 0 1 0 0) " stroke-linecap="round" />
	<path d="M 84.26 79.573 H 5.74 c -2.618 0 -4.74 -2.122 -4.74 -4.74 v -1.409 h 88 v 1.409 C 89 77.451 86.878 79.573 84.26 79.573 z" style="stroke: none; stroke-width: 1; stroke-dasharray: none; stroke-linecap: butt; stroke-linejoin: miter; stroke-miterlimit: 10; fill: none; fill-rule: nonzero; opacity: 1;" transform=" matrix(1 0 0 1 0 0) " stroke-linecap="round" />
	<rect x="33.79" y="73.42" rx="0" ry="0" width="22.41" height="6.15" style="stroke: none; stroke-width: 1; stroke-dasharray: none; stroke-linecap: butt; stroke-linejoin: miter; stroke-miterlimit: 10; fill: none; fill-rule: nonzero; opacity: 1;" transform=" matrix(1 0 0 1 0 0) "/>
	<path d="M 77.152 55.216 H 12.848 c -1.959 0 -3.553 -1.594 -3.553 -3.553 V 12.979 c 0 -1.959 1.594 -3.553 3.553 -3.553 h 64.304 c 1.959 0 3.553 1.594 3.553 3.553 v 38.684 C 80.705 53.622 79.111 55.216 77.152 55.216 z M 12.848 11.427 c -0.856 0 -1.553 0.697 -1.553 1.553 v 38.684 c 0 0.856 0.697 1.553 1.553 1.553 h 64.304 c 0.856 0 1.553 -0.696 1.553 -1.553 V 12.979 c 0 -0.856 -0.696 -1.553 -1.553 -1.553 H 12.848 z" style="stroke: none; stroke-width: 1; stroke-dasharray: none; stroke-linecap: butt; stroke-linejoin: miter; stroke-miterlimit: 10; fill: rgb(0, 153, 204); fill-rule: nonzero; opacity: 1;" transform=" matrix(1 0 0 1 0 0) " stroke-linecap="round" />
	<path d="M 89 74.425 H 1 c -0.344 0 -0.665 -0.177 -0.847 -0.469 C -0.03 73.664 -0.05 73.299 0.1 72.989 l 8.474 -17.51 c 0.666 -1.375 2.083 -2.264 3.61 -2.264 h 65.634 c 1.527 0 2.944 0.889 3.61 2.264 l 8.473 17.51 c 0.149 0.31 0.13 0.675 -0.053 0.967 C 89.664 74.248 89.345 74.425 89 74.425 z M 2.595 72.425 h 84.811 l -7.778 -16.074 c -0.333 -0.689 -1.044 -1.135 -1.81 -1.135 H 12.183 c -0.766 0 -1.476 0.445 -1.81 1.135 L 2.595 72.425 z" style="stroke: none; stroke-width: 1; stroke-dasharray: none; stroke-linecap: butt; stroke-linejoin: miter; stroke-miterlimit: 10; fill: rgb(0, 153, 204); fill-rule: nonzero; opacity: 1;" transform=" matrix(1 0 0 1 0 0) " stroke-linecap="round" />
	<path d="M 76.376 67.169 H 13.624 c -0.71 0 -1.359 -0.359 -1.737 -0.961 c -0.377 -0.602 -0.417 -1.342 -0.108 -1.981 l 1.78 -3.678 c 0.63 -1.302 1.971 -2.144 3.417 -2.144 h 56.047 c 1.447 0 2.788 0.842 3.418 2.144 l 1.779 3.678 c 0.31 0.639 0.27 1.38 -0.108 1.981 C 77.735 66.81 77.086 67.169 76.376 67.169 z M 16.977 60.405 c -0.685 0 -1.319 0.398 -1.617 1.015 l -1.78 3.678 l 62.797 0.071 l -1.735 -3.749 c -0.298 -0.616 -0.933 -1.015 -1.617 -1.015 H 16.977 z" style="stroke: none; stroke-width: 1; stroke-dasharray: none; stroke-linecap: butt; stroke-linejoin: miter; stroke-miterlimit: 10; fill: rgb(0, 153, 204); fill-rule: nonzero; opacity: 1;" transform=" matrix(1 0 0 1 0 0) " stroke-linecap="round" />
	<path d="M 84.26 80.573 H 5.74 c -3.165 0 -5.74 -2.575 -5.74 -5.74 v -1.408 c 0 -0.553 0.448 -1 1 -1 h 88 c 0.553 0 1 0.447 1 1 v 1.408 C 90 77.998 87.425 80.573 84.26 80.573 z M 2 74.425 v 0.408 c 0 2.063 1.678 3.74 3.74 3.74 h 78.52 c 2.063 0 3.74 -1.678 3.74 -3.74 v -0.408 H 2 z" style="stroke: none; stroke-width: 1; stroke-dasharray: none; stroke-linecap: butt; stroke-linejoin: miter; stroke-miterlimit: 10; fill: rgb(0, 153, 204); fill-rule: nonzero; opacity: 1;" transform=" matrix(1 0 0 1 0 0) " stroke-linecap="round" />
	<path d="M 56.206 80.573 H 33.794 c -0.552 0 -1 -0.447 -1 -1 v -6.148 c 0 -0.553 0.448 -1 1 -1 h 22.412 c 0.553 0 1 0.447 1 1 v 6.148 C 57.206 80.126 56.759 80.573 56.206 80.573 z M 34.794 78.573 h 20.412 v -4.148 H 34.794 V 78.573 z" style="stroke: none; stroke-width: 1; stroke-dasharray: none; stroke-linecap: butt; stroke-linejoin: miter; stroke-miterlimit: 10; fill: rgb(0, 153, 204); fill-rule: nonzero; opacity: 1;" transform=" matrix(1 0 0 1 0 0) " stroke-linecap="round" />
	<circle cx="45.001999999999995" cy="45.111999999999995" r="2.922" style="stroke: none; stroke-width: 1; stroke-dasharray: none; stroke-linecap: butt; stroke-linejoin: miter; stroke-miterlimit: 10; fill: rgb(0,242,169); fill-rule: nonzero; opacity: 1;" transform="  matrix(1 0 0 1 0 0) "/>
	<circle cx="61.852" cy="45.111999999999995" r="2.922" style="stroke: none; stroke-width: 1; stroke-dasharray: none; stroke-linecap: butt; stroke-linejoin: miter; stroke-miterlimit: 10; fill: rgb(0,242,169); fill-rule: nonzero; opacity: 1;" transform="  matrix(1 0 0 1 0 0) "/>
	<circle cx="28.142" cy="45.111999999999995" r="2.922" style="stroke: none; stroke-width: 1; stroke-dasharray: none; stroke-linecap: butt; stroke-linejoin: miter; stroke-miterlimit: 10; fill: rgb(0,242,169); fill-rule: nonzero; opacity: 1;" transform="  matrix(1 0 0 1 0 0) "/>
	<path d="M 46.894 34.488 h 14.772 c 0.547 -1.103 0.863 -2.341 0.863 -3.656 c 0 -4.556 -3.693 -8.249 -8.249 -8.249 c -0.401 0 -0.792 0.038 -1.179 0.094 c -0.716 -3.826 -4.068 -6.722 -8.101 -6.722 s -7.385 2.897 -8.102 6.722 c -0.386 -0.056 -0.777 -0.094 -1.179 -0.094 c -4.556 0 -8.249 3.693 -8.249 8.249 c 0 1.315 0.316 2.553 0.863 3.656 H 46.894" style="stroke: none; stroke-width: 1; stroke-dasharray: none; stroke-linecap: butt; stroke-linejoin: miter; stroke-miterlimit: 10; fill: rgb(255,255,255); fill-rule: nonzero; opacity: 1;" transform=" matrix(1 0 0 1 0 0) " stroke-linecap="round" />
	<path d="M 61.666 35.488 H 28.334 c -0.38 0 -0.727 -0.215 -0.896 -0.556 c -0.642 -1.293 -0.967 -2.672 -0.967 -4.1 c 0 -5.1 4.149 -9.249 9.249 -9.249 c 0.135 0 0.271 0.003 0.411 0.011 c 1.141 -3.897 4.735 -6.64 8.869 -6.64 c 4.136 0 7.729 2.742 8.869 6.64 c 0.141 -0.008 0.276 -0.011 0.411 -0.011 c 5.1 0 9.249 4.149 9.249 9.249 c 0 1.426 -0.325 2.805 -0.968 4.1 C 62.394 35.272 62.046 35.488 61.666 35.488 z M 28.981 33.488 h 32.037 c 0.339 -0.851 0.511 -1.742 0.511 -2.656 c 0 -3.997 -3.252 -7.249 -7.249 -7.249 c -0.309 0 -0.638 0.027 -1.036 0.084 c -0.53 0.077 -1.027 -0.279 -1.126 -0.806 c -0.64 -3.423 -3.634 -5.907 -7.118 -5.907 c -3.483 0 -6.478 2.484 -7.119 5.907 c -0.099 0.527 -0.59 0.879 -1.126 0.806 c -0.397 -0.057 -0.726 -0.084 -1.036 -0.084 c -3.997 0 -7.249 3.252 -7.249 7.249 C 28.471 31.747 28.643 32.638 28.981 33.488 z" style="stroke: none; stroke-width: 1; stroke-dasharray: none; stroke-linecap: butt; stroke-linejoin: miter; stroke-miterlimit: 10; fill: rgb(0, 153, 204); fill-rule: nonzero; opacity: 1;" transform=" matrix(1 0 0 1 0 0) " stroke-linecap="round" />
	<path d="M 45 49.029 c -2.162 0 -3.921 -1.759 -3.921 -3.921 c 0 -2.162 1.759 -3.921 3.921 -3.921 s 3.922 1.759 3.922 3.921 C 48.922 47.271 47.162 49.029 45 49.029 z M 45 43.187 c -1.06 0 -1.921 0.862 -1.921 1.921 c 0 1.059 0.862 1.921 1.921 1.921 s 1.922 -0.862 1.922 -1.921 C 46.922 44.048 46.06 43.187 45 43.187 z" style="stroke: none; stroke-width: 1; stroke-dasharray: none; stroke-linecap: butt; stroke-linejoin: miter; stroke-miterlimit: 10; fill: rgb(0, 153, 204); fill-rule: nonzero; opacity: 1;" transform=" matrix(1 0 0 1 0 0) " stroke-linecap="round" />
	<path d="M 61.855 49.029 c -2.162 0 -3.922 -1.759 -3.922 -3.921 c 0 -2.162 1.76 -3.921 3.922 -3.921 s 3.921 1.759 3.921 3.921 C 65.776 47.271 64.018 49.029 61.855 49.029 z M 61.855 43.187 c -1.06 0 -1.922 0.862 -1.922 1.921 c 0 1.059 0.862 1.921 1.922 1.921 s 1.921 -0.862 1.921 -1.921 C 63.776 44.048 62.915 43.187 61.855 43.187 z" style="stroke: none; stroke-width: 1; stroke-dasharray: none; stroke-linecap: butt; stroke-linejoin: miter; stroke-miterlimit: 10; fill: rgb(0, 153, 204); fill-rule: nonzero; opacity: 1;" transform=" matrix(1 0 0 1 0 0) " stroke-linecap="round" />
	<path d="M 28.145 49.029 c -2.162 0 -3.921 -1.759 -3.921 -3.921 c 0 -2.162 1.759 -3.921 3.921 -3.921 c 2.163 0 3.922 1.759 3.922 3.921 C 32.066 47.271 30.307 49.029 28.145 49.029 z M 28.145 43.187 c -1.06 0 -1.921 0.862 -1.921 1.921 c 0 1.059 0.862 1.921 1.921 1.921 s 1.922 -0.862 1.922 -1.921 C 30.066 44.048 29.204 43.187 28.145 43.187 z" style="stroke: none; stroke-width: 1; stroke-dasharray: none; stroke-linecap: butt; stroke-linejoin: miter; stroke-miterlimit: 10; fill: rgb(0, 153, 204); fill-rule: nonzero; opacity: 1;" transform=" matrix(1 0 0 1 0 0) " stroke-linecap="round" />
	<path d="M 45 43.187 c -0.552 0 -1 -0.448 -1 -1 v -7.699 c 0 -0.552 0.448 -1 1 -1 s 1 0.448 1 1 v 7.699 C 46 42.739 45.552 43.187 45 43.187 z" style="stroke: none; stroke-width: 1; stroke-dasharray: none; stroke-linecap: butt; stroke-linejoin: miter; stroke-miterlimit: 10; fill: rgb(0, 153, 204); fill-rule: nonzero; opacity: 1;" transform=" matrix(1 0 0 1 0 0) " stroke-linecap="round" />
	<path d="M 42.079 46.107 H 31.066 c -0.552 0 -1 -0.447 -1 -1 s 0.448 -1 1 -1 h 11.012 c 0.552 0 1 0.448 1 1 S 42.631 46.107 42.079 46.107 z" style="stroke: none; stroke-width: 1; stroke-dasharray: none; stroke-linecap: butt; stroke-linejoin: miter; stroke-miterlimit: 10; fill: rgb(0, 153, 204); fill-rule: nonzero; opacity: 1;" transform=" matrix(1 0 0 1 0 0) " stroke-linecap="round" />
	<path d="M 58.934 46.107 H 47.922 c -0.553 0 -1 -0.447 -1 -1 s 0.447 -1 1 -1 h 11.012 c 0.553 0 1 0.448 1 1 S 59.486 46.107 58.934 46.107 z" style="stroke: none; stroke-width: 1; stroke-dasharray: none; stroke-linecap: butt; stroke-linejoin: miter; stroke-miterlimit: 10; fill: rgb(0, 153, 204); fill-rule: nonzero; opacity: 1;" transform=" matrix(1 0 0 1 0 0) " stroke-linecap="round" />
</g>
</svg>