<svg fill="rgb(0, 153, 204)" height="80px" width="80px" version="1.1" id="Layer_1" xmlns="http://www.w3.org/2000/svg" xmlns:xlink="http://www.w3.org/1999/xlink" viewBox="0 0 512 512" xml:space="preserve" stroke="#58ccfe"><g id="SVGRepo_bgCarrier" stroke-width="0"></g><g id="SVGRepo_tracerCarrier" stroke-linecap="round" stroke-linejoin="round"></g><g id="SVGRepo_iconCarrier"> <g transform="translate(1 1)"> <g> <g> <path d="M183.32,33.133H53.613c-11.093,0-20.48,9.387-20.48,20.48v78.507c0,11.093,9.387,20.48,20.48,20.48H183.32 c11.093,0,20.48-9.387,20.48-20.48V53.613C203.8,42.52,194.413,33.133,183.32,33.133z M186.733,132.12 c0,1.707-1.707,3.413-3.413,3.413H53.613c-1.707,0-3.413-1.707-3.413-3.413V53.613c0-1.707,1.707-3.413,3.413-3.413H183.32 c1.707,0,3.413,1.707,3.413,3.413V132.12z"></path> <path d="M456.387,306.2H326.68c-11.093,0-20.48,9.387-20.48,20.48v78.507c0,11.093,9.387,20.48,20.48,20.48h129.707 c11.093,0,20.48-9.387,20.48-20.48V326.68C476.867,315.587,467.48,306.2,456.387,306.2z M459.8,405.187 c0,1.707-1.707,3.413-3.413,3.413H326.68c-1.707,0-3.413-1.707-3.413-3.413V326.68c0-1.707,1.707-3.413,3.413-3.413h129.707 c1.707,0,3.413,1.707,3.413,3.413V405.187z"></path> <path d="M488.813,272.067h-63.147v-25.6c0-5.12-3.413-8.533-8.533-8.533s-8.533,3.413-8.533,8.533v25.6H294.253 c-11.947,0-22.187,10.24-22.187,22.187v143.36c0,11.947,10.24,22.187,22.187,22.187H331.8v31.573 c0,11.093,8.533,19.627,18.773,19.627h81.067c11.093,0,19.627-8.533,19.627-19.627V459.8h37.547 c11.947,0,22.187-10.24,22.187-22.187v-143.36C511,282.307,500.76,272.067,488.813,272.067z M435.053,491.373 c0,1.707-1.707,2.56-2.56,2.56h-81.067c-1.707,0-2.56-1.707-2.56-2.56V459.8h86.187V491.373z M493.933,437.613 c0,2.56-2.56,5.12-5.12,5.12h-37.547H331.8h-37.547c-2.56,0-5.12-2.56-5.12-5.12v-143.36c0-2.56,2.56-5.12,5.12-5.12h194.56 c2.56,0,5.12,2.56,5.12,5.12V437.613z"></path> <path d="M118.467,331.8c5.12,0,8.533-3.413,8.533-8.533v-25.6c0-5.12-3.413-8.533-8.533-8.533s-8.533,3.413-8.533,8.533v25.6 C109.933,328.387,113.347,331.8,118.467,331.8z"></path> <path d="M246.467,408.6h-25.6c-5.12,0-8.533,3.413-8.533,8.533s3.413,8.533,8.533,8.533h25.6c5.12,0,8.533-3.413,8.533-8.533 S251.587,408.6,246.467,408.6z"></path> <path d="M186.733,408.6h-26.425c-3.32-16.93-16.378-29.988-33.308-33.308V357.4c0-5.12-3.413-8.533-8.533-8.533 s-8.533,3.413-8.533,8.533v17.892C90.252,379.152,75.8,396.17,75.8,417.133c0,23.893,18.773,42.667,42.667,42.667 c20.963,0,37.981-14.452,41.841-34.133h26.425c5.12,0,8.533-3.413,8.533-8.533S191.853,408.6,186.733,408.6z M118.467,442.733 c-14.507,0-25.6-11.093-25.6-25.6s11.093-25.6,25.6-25.6s25.6,11.093,25.6,25.6S132.973,442.733,118.467,442.733z"></path> <path d="M357.4,92.867h17.892c3.32,16.93,16.378,29.988,33.308,33.308V152.6c0,5.12,3.413,8.533,8.533,8.533 s8.533-3.413,8.533-8.533v-26.425c19.681-3.86,34.133-20.878,34.133-41.841c0-23.893-18.773-42.667-42.667-42.667 c-20.963,0-37.981,14.452-41.841,34.133H357.4c-5.12,0-8.533,3.413-8.533,8.533C348.867,89.453,352.28,92.867,357.4,92.867z M417.133,58.733c14.507,0,25.6,11.093,25.6,25.6c0,14.507-11.093,25.6-25.6,25.6s-25.6-11.093-25.6-25.6 C391.533,69.827,402.627,58.733,417.133,58.733z"></path> <path d="M297.667,92.867h25.6c5.12,0,8.533-3.413,8.533-8.533c0-5.12-3.413-8.533-8.533-8.533h-25.6 c-5.12,0-8.533,3.413-8.533,8.533C289.133,89.453,292.547,92.867,297.667,92.867z"></path> <path d="M263.533,75.8h-25.6V21.187C237.933,9.24,227.693-1,215.747-1H21.187C9.24-1-1,9.24-1,21.187v143.36 c0,11.947,10.24,22.187,22.187,22.187h37.547v31.573c0,11.093,8.533,19.627,19.627,19.627h31.573v25.6 c0,5.12,3.413,8.533,8.533,8.533s8.533-3.413,8.533-8.533v-25.6h31.573c11.093,0,19.627-8.533,19.627-19.627v-31.573h37.547 c11.947,0,22.187-10.24,22.187-22.187v-71.68h25.6c5.12,0,8.533-3.413,8.533-8.533C272.067,79.213,268.653,75.8,263.533,75.8z M161.987,218.307c0,1.707-1.707,2.56-2.56,2.56H78.36c-1.707,0-2.56-0.853-2.56-2.56v-31.573h86.187V218.307z M220.867,164.547 c0,2.56-2.56,5.12-5.12,5.12H178.2H58.733H21.187c-2.56,0-5.12-2.56-5.12-5.12V21.187c0-2.56,2.56-5.12,5.12-5.12h194.56 c2.56,0,5.12,2.56,5.12,5.12V164.547z"></path> <path d="M417.133,178.2c-5.12,0-8.533,3.413-8.533,8.533v25.6c0,5.12,3.413,8.533,8.533,8.533s8.533-3.413,8.533-8.533v-25.6 C425.667,181.613,422.253,178.2,417.133,178.2z"></path> </g> </g> </g> </g></svg>