<svg xmlns="http://www.w3.org/2000/svg" xmlns:xlink="http://www.w3.org/1999/xlink" version="1.1" width="80" height="80" viewBox="0 0 256 256" xml:space="preserve">

<defs>
</defs>
<g style="stroke: none; stroke-width: 0; stroke-dasharray: none; stroke-linecap: butt; stroke-linejoin: miter; stroke-miterlimit: 10; fill: none; fill-rule: nonzero; opacity: 1;" transform="translate(1.4065934065934016 1.4065934065934016) scale(2.81 2.81)" >
	<path d="M 84.332 64.797 H 5.668 C 3.09 64.797 1 62.707 1 60.129 V 8.958 C 1 6.38 3.09 4.29 5.668 4.29 h 78.665 C 86.91 4.29 89 6.38 89 8.958 v 51.171 C 89 62.707 86.91 64.797 84.332 64.797 z" style="stroke: none; stroke-width: 1; stroke-dasharray: none; stroke-linecap: butt; stroke-linejoin: miter; stroke-miterlimit: 10; fill: ; fill-rule: nonzero; opacity: 1;" transform=" matrix(1 0 0 1 0 0) " stroke-linecap="round" />
	<path d="M 89 49.589 H 1 v 10.54 c 0 2.578 2.09 4.668 4.668 4.668 h 78.665 c 2.578 0 4.668 -2.09 4.668 -4.668 V 49.589 z" style="stroke: none; stroke-width: 1; stroke-dasharray: none; stroke-linecap: butt; stroke-linejoin: miter; stroke-miterlimit: 10; fill: none; fill-rule: nonzero; opacity: 1;" transform=" matrix(1 0 0 1 0 0) " stroke-linecap="round" />
	<path d="M 68.064 85.71 H 21.936 v -2.397 c 0 -2.912 2.36 -5.272 5.272 -5.272 h 35.584 c 2.912 0 5.272 2.36 5.272 5.272 V 85.71 z" style="stroke: none; stroke-width: 1; stroke-dasharray: none; stroke-linecap: butt; stroke-linejoin: miter; stroke-miterlimit: 10; fill: none; fill-rule: nonzero; opacity: 1;" transform=" matrix(1 0 0 1 0 0) " stroke-linecap="round" />
	<path d="M 60.073 78.041 c -2.233 -4.046 -3.413 -8.601 -3.413 -13.244 H 33.341 c 0 4.643 -1.18 9.198 -3.413 13.244 H 60.073 z" style="stroke: none; stroke-width: 1; stroke-dasharray: none; stroke-linecap: butt; stroke-linejoin: miter; stroke-miterlimit: 10; fill: none; fill-rule: nonzero; opacity: 1;" transform=" matrix(1 0 0 1 0 0) " stroke-linecap="round" />
	<path d="M 84.332 65.797 H 5.668 C 2.542 65.797 0 63.254 0 60.129 V 8.958 c 0 -3.125 2.542 -5.667 5.668 -5.667 h 78.664 C 87.457 3.291 90 5.833 90 8.958 v 51.171 C 90 63.254 87.457 65.797 84.332 65.797 z M 5.668 5.291 C 3.646 5.291 2 6.936 2 8.958 v 51.171 c 0 2.022 1.646 3.668 3.668 3.668 h 78.664 c 2.022 0 3.668 -1.646 3.668 -3.668 V 8.958 c 0 -2.022 -1.646 -3.667 -3.668 -3.667 H 5.668 z" style="stroke: none; stroke-width: 1; stroke-dasharray: none; stroke-linecap: butt; stroke-linejoin: miter; stroke-miterlimit: 10; fill: rgb(0, 153, 204); fill-rule: nonzero; opacity: 1;" transform=" matrix(1 0 0 1 0 0) " stroke-linecap="round" />
	<path d="M 84.332 65.797 H 5.668 C 2.542 65.797 0 63.254 0 60.129 v -10.54 c 0 -0.553 0.448 -1 1 -1 h 88 c 0.553 0 1 0.447 1 1 v 10.54 C 90 63.254 87.457 65.797 84.332 65.797 z M 2 50.589 v 9.54 c 0 2.022 1.646 3.668 3.668 3.668 h 78.664 c 2.022 0 3.668 -1.646 3.668 -3.668 v -9.54 H 2 z" style="stroke: none; stroke-width: 1; stroke-dasharray: none; stroke-linecap: butt; stroke-linejoin: miter; stroke-miterlimit: 10; fill: rgb(0, 153, 204); fill-rule: nonzero; opacity: 1;" transform=" matrix(1 0 0 1 0 0) " stroke-linecap="round" />
	<path d="M 68.064 86.71 H 21.936 c -0.552 0 -1 -0.447 -1 -1 v -2.397 c 0 -3.458 2.813 -6.271 6.272 -6.271 h 35.584 c 3.459 0 6.272 2.813 6.272 6.271 v 2.397 C 69.064 86.263 68.617 86.71 68.064 86.71 z M 22.936 84.71 h 44.128 v -1.397 c 0 -2.355 -1.917 -4.271 -4.272 -4.271 H 27.208 c -2.355 0 -4.272 1.916 -4.272 4.271 V 84.71 z" style="stroke: none; stroke-width: 1; stroke-dasharray: none; stroke-linecap: butt; stroke-linejoin: miter; stroke-miterlimit: 10; fill: rgb(0, 153, 204); fill-rule: nonzero; opacity: 1;" transform=" matrix(1 0 0 1 0 0) " stroke-linecap="round" />
	<path d="M 60.072 79.041 H 29.927 c -0.354 0 -0.681 -0.187 -0.861 -0.491 c -0.18 -0.305 -0.185 -0.683 -0.014 -0.992 c 2.152 -3.898 3.289 -8.312 3.289 -12.761 c 0 -0.553 0.448 -1 1 -1 h 23.318 c 0.553 0 1 0.447 1 1 c 0 4.45 1.137 8.862 3.289 12.761 c 0.171 0.31 0.165 0.688 -0.015 0.992 S 60.426 79.041 60.072 79.041 z M 31.565 77.041 h 26.87 c -1.677 -3.513 -2.619 -7.354 -2.758 -11.244 H 34.323 C 34.185 69.688 33.242 73.527 31.565 77.041 z" style="stroke: none; stroke-width: 1; stroke-dasharray: none; stroke-linecap: butt; stroke-linejoin: miter; stroke-miterlimit: 10; fill: rgb(0, 153, 204); fill-rule: nonzero; opacity: 1;" transform=" matrix(1 0 0 1 0 0) " stroke-linecap="round" />
	<path d="M 34.909 36.621 c -0.268 0 -0.535 -0.107 -0.732 -0.319 l -7.094 -7.621 c -0.357 -0.384 -0.357 -0.979 0 -1.362 l 7.094 -7.621 c 0.377 -0.405 1.011 -0.426 1.413 -0.051 c 0.404 0.376 0.427 1.009 0.051 1.413 L 29.181 28 l 6.46 6.94 c 0.376 0.404 0.354 1.037 -0.051 1.413 C 35.398 36.532 35.153 36.621 34.909 36.621 z" style="stroke: none; stroke-width: 1; stroke-dasharray: none; stroke-linecap: butt; stroke-linejoin: miter; stroke-miterlimit: 10; fill: rgb(0, 153, 204); fill-rule: nonzero; opacity: 1;" transform=" matrix(1 0 0 1 0 0) " stroke-linecap="round" />
	<path d="M 55.091 36.621 c -0.244 0 -0.488 -0.089 -0.682 -0.268 c -0.404 -0.376 -0.427 -1.009 -0.05 -1.413 l 6.46 -6.94 l -6.46 -6.94 c -0.377 -0.404 -0.354 -1.037 0.05 -1.413 c 0.405 -0.376 1.038 -0.354 1.413 0.051 l 7.096 7.621 c 0.356 0.384 0.356 0.979 0 1.362 l -7.096 7.621 C 55.626 36.514 55.358 36.621 55.091 36.621 z" style="stroke: none; stroke-width: 1; stroke-dasharray: none; stroke-linecap: butt; stroke-linejoin: miter; stroke-miterlimit: 10; fill: rgb(0, 153, 204); fill-rule: nonzero; opacity: 1;" transform=" matrix(1 0 0 1 0 0) " stroke-linecap="round" />
	<path d="M 41.575 39 c -0.107 0 -0.217 -0.018 -0.324 -0.054 c -0.522 -0.179 -0.801 -0.748 -0.622 -1.271 l 6.85 -20 c 0.18 -0.522 0.746 -0.8 1.271 -0.622 c 0.522 0.179 0.801 0.748 0.622 1.271 l -6.85 20 C 42.379 38.739 41.991 39 41.575 39 z" style="stroke: none; stroke-width: 1; stroke-dasharray: none; stroke-linecap: butt; stroke-linejoin: miter; stroke-miterlimit: 10; fill: rgb(0, 153, 204); fill-rule: nonzero; opacity: 1;" transform=" matrix(1 0 0 1 0 0) " stroke-linecap="round" />
</g>
</svg>