<svg id="wave" style="transform:rotate(0deg); transition: 0.3s" viewBox="0 0 1440 490" version="1.1" xmlns="http://www.w3.org/2000/svg"><defs><linearGradient id="sw-gradient-0" x1="0" x2="0" y1="1" y2="0"><stop stop-color="rgba(0, 153, 204, 0.36)" offset="0%"></stop><stop stop-color="rgba(0, 204, 204, 0.4)" offset="100%"></stop></linearGradient></defs><path style="transform:translate(0, 0px); opacity:1" fill="url(#sw-gradient-0)" d="M0,147L48,163.3C96,180,192,212,288,245C384,278,480,310,576,310.3C672,310,768,278,864,261.3C960,245,1056,245,1152,277.7C1248,310,1344,376,1440,383.8C1536,392,1632,343,1728,294C1824,245,1920,196,2016,155.2C2112,114,2208,82,2304,81.7C2400,82,2496,114,2592,114.3C2688,114,2784,82,2880,89.8C2976,98,3072,147,3168,212.3C3264,278,3360,359,3456,359.3C3552,359,3648,278,3744,277.7C3840,278,3936,359,4032,334.8C4128,310,4224,180,4320,122.5C4416,65,4512,82,4608,147C4704,212,4800,327,4896,375.7C4992,425,5088,408,5184,400.2C5280,392,5376,392,5472,326.7C5568,261,5664,131,5760,138.8C5856,147,5952,294,6048,318.5C6144,343,6240,245,6336,228.7C6432,212,6528,278,6624,302.2C6720,327,6816,310,6864,302.2L6912,294L6912,490L6864,490C6816,490,6720,490,6624,490C6528,490,6432,490,6336,490C6240,490,6144,490,6048,490C5952,490,5856,490,5760,490C5664,490,5568,490,5472,490C5376,490,5280,490,5184,490C5088,490,4992,490,4896,490C4800,490,4704,490,4608,490C4512,490,4416,490,4320,490C4224,490,4128,490,4032,490C3936,490,3840,490,3744,490C3648,490,3552,490,3456,490C3360,490,3264,490,3168,490C3072,490,2976,490,2880,490C2784,490,2688,490,2592,490C2496,490,2400,490,2304,490C2208,490,2112,490,2016,490C1920,490,1824,490,1728,490C1632,490,1536,490,1440,490C1344,490,1248,490,1152,490C1056,490,960,490,864,490C768,490,672,490,576,490C480,490,384,490,288,490C192,490,96,490,48,490L0,490Z"></path><defs><linearGradient id="sw-gradient-1" x1="0" x2="0" y1="1" y2="0"><stop stop-color="rgba(0, 153, 204, 0.27)" offset="0%"></stop><stop stop-color="rgba(17, 204, 204, 0.59)" offset="100%"></stop></linearGradient></defs><path style="transform:translate(0, 50px); opacity:0.9" fill="url(#sw-gradient-1)" d="M0,245L48,228.7C96,212,192,180,288,155.2C384,131,480,114,576,163.3C672,212,768,327,864,383.8C960,441,1056,441,1152,367.5C1248,294,1344,147,1440,98C1536,49,1632,98,1728,114.3C1824,131,1920,114,2016,98C2112,82,2208,65,2304,114.3C2400,163,2496,278,2592,269.5C2688,261,2784,131,2880,138.8C2976,147,3072,294,3168,318.5C3264,343,3360,245,3456,220.5C3552,196,3648,245,3744,236.8C3840,229,3936,163,4032,171.5C4128,180,4224,261,4320,269.5C4416,278,4512,212,4608,171.5C4704,131,4800,114,4896,122.5C4992,131,5088,163,5184,163.3C5280,163,5376,131,5472,106.2C5568,82,5664,65,5760,57.2C5856,49,5952,49,6048,49C6144,49,6240,49,6336,40.8C6432,33,6528,16,6624,65.3C6720,114,6816,229,6864,285.8L6912,343L6912,490L6864,490C6816,490,6720,490,6624,490C6528,490,6432,490,6336,490C6240,490,6144,490,6048,490C5952,490,5856,490,5760,490C5664,490,5568,490,5472,490C5376,490,5280,490,5184,490C5088,490,4992,490,4896,490C4800,490,4704,490,4608,490C4512,490,4416,490,4320,490C4224,490,4128,490,4032,490C3936,490,3840,490,3744,490C3648,490,3552,490,3456,490C3360,490,3264,490,3168,490C3072,490,2976,490,2880,490C2784,490,2688,490,2592,490C2496,490,2400,490,2304,490C2208,490,2112,490,2016,490C1920,490,1824,490,1728,490C1632,490,1536,490,1440,490C1344,490,1248,490,1152,490C1056,490,960,490,864,490C768,490,672,490,576,490C480,490,384,490,288,490C192,490,96,490,48,490L0,490Z"></path></svg>